<svg width="906" height="455" viewBox="0 0 906 455" fill="none" xmlns="http://www.w3.org/2000/svg">
<path d="M700.446 375.584H701.201V374.829V269.942C712.146 277.963 730.362 286.843 751.033 288.522C772.521 290.268 796.644 284.227 817.941 261.414C831.538 247.809 850.365 210.308 831.049 159.599C825.867 145.995 817.619 133.349 805.623 124.945C794.213 116.952 778.92 110.167 760.909 109.189C743.208 108.228 722.933 112.88 701.201 127.426V109.984V109.23H700.446H647.629H646.875V109.984V374.829V375.584H647.629H700.446ZM870.216 291.664C889.385 291.664 904.924 276.125 904.924 256.956C904.924 237.787 889.385 222.248 870.216 222.248C851.047 222.248 835.507 237.787 835.507 256.956C835.507 276.125 851.047 291.664 870.216 291.664ZM746.501 152.238C771.087 152.238 791.018 172.169 791.018 196.755C791.018 221.341 771.087 241.272 746.501 241.272C721.915 241.272 701.984 221.341 701.984 196.755C701.984 172.169 721.915 152.238 746.501 152.238Z" fill="black" stroke="black" stroke-width="1.50906"/>
<path d="M348.15 115.027H347.396V115.781V289.323V290.078H348.15H408.513H409.267V289.323V194.166C409.267 184.862 410.94 175.407 416.66 168.308C423.603 159.691 430.852 156.884 437.705 157.399C444.614 157.918 451.279 161.824 456.973 166.961C465.335 174.506 468.12 186.161 468.12 197.645V289.323V290.078H468.875H521.692H522.447V289.323V191.939C522.447 184.16 524.199 176.376 528.962 170.392C535.669 161.966 542.324 158.25 548.526 157.491C554.736 156.731 560.639 158.918 565.873 162.598C578.428 171.426 581.3 188.221 581.3 203.961V289.323V290.078H582.054H638.644H639.399V289.323V173.904C639.399 158.021 635.552 141.63 624.295 130.171C604.275 109.793 582.559 106.367 563.325 110.748C544.468 115.044 528.036 126.829 517.89 137.356C492.309 113.513 468.708 107.848 449.527 110.602C431.325 113.215 417.216 123.394 409.267 132.561V115.781V115.027H408.513H348.15Z" fill="black" stroke="black" stroke-width="1.50906"/>
<path d="M275.03 117.466H274.276V118.221V291.762V292.517H275.03H335.393H336.147V291.762V118.221V117.466H335.393H275.03ZM305.211 88.6327C324.38 88.6327 339.92 73.0932 339.92 53.9243C339.92 34.7554 324.38 19.2159 305.211 19.2159C286.042 19.2159 270.503 34.7554 270.503 53.9243C270.503 73.0932 286.042 88.6327 305.211 88.6327Z" fill="black" stroke="black" stroke-width="1.50906"/>
<path d="M201.91 1.24547H201.155V2V288.721V289.476H201.91H262.272H263.027V288.721V2V1.24547H262.272H201.91Z" fill="black" stroke="black" stroke-width="1.50906"/>
<path d="M55.5716 2V1.24547H54.8171H2H1.24547V2V288.721V289.476H2H54.8171H55.5716V288.721V271.28C77.3035 285.825 97.5786 290.477 115.28 289.516C133.291 288.539 148.584 281.753 159.993 273.76C171.99 265.356 180.238 252.71 185.42 239.107C204.735 188.397 185.908 150.896 172.312 137.291C151.015 114.478 126.892 108.437 105.404 110.183C84.7325 111.862 66.5171 120.743 55.5716 128.763V2ZM140.833 201.95C140.833 226.537 120.902 246.468 96.3162 246.468C71.73 246.468 51.799 226.537 51.799 201.95C51.799 177.364 71.73 157.433 96.3162 157.433C120.902 157.433 140.833 177.364 140.833 201.95Z" fill="black" stroke="black" stroke-width="1.50906"/>
<path d="M29.0147 454.784C23.3713 454.784 18.5131 453.705 14.44 451.545C10.416 449.386 7.32444 446.319 5.16523 442.344C3.05509 438.32 2.00002 433.634 2.00002 428.285C2.00002 422.936 3.07962 418.274 5.23883 414.299C7.39805 410.275 10.5387 407.183 14.6609 405.024C18.783 402.865 23.7148 401.785 29.4564 401.785C31.861 401.785 34.2165 402.031 36.5229 402.521C38.8784 402.963 40.9885 403.65 42.8533 404.582V413.563H42.5589C40.6941 412.483 38.6576 411.673 36.4493 411.134C34.2901 410.594 32.229 410.324 30.2661 410.324C24.6718 410.324 20.2552 411.87 17.0164 414.961C13.8266 418.053 12.2317 422.494 12.2317 428.285C12.2317 434.026 13.8021 438.443 16.9428 441.534C20.0834 444.626 24.3773 446.172 29.8244 446.172C31.9346 446.172 34.0692 445.853 36.2285 445.215C38.4367 444.528 40.5469 443.571 42.5589 442.344H42.8533V451.398C38.9275 453.655 34.3146 454.784 29.0147 454.784Z" fill="black"/>
<path d="M109.597 453.901L99.1445 434.394H90.0169V453.901H80.3004V402.669H98.7764C105.401 402.669 110.358 403.994 113.646 406.644C116.933 409.293 118.577 413.146 118.577 418.2C118.577 421.783 117.768 424.825 116.148 427.328C114.529 429.831 112.124 431.695 108.935 432.922L120.27 453.901H109.597ZM90.0169 425.856H98.85C102.089 425.856 104.469 425.291 105.99 424.163C107.56 423.034 108.346 421.12 108.346 418.421C108.346 415.82 107.585 413.98 106.064 412.9C104.542 411.821 102.113 411.281 98.7764 411.281H90.0169V425.856Z" fill="black"/>
<path d="M178.731 454.784C173.48 454.784 168.965 453.705 165.187 451.545C161.408 449.386 158.537 446.319 156.574 442.344C154.611 438.369 153.63 433.683 153.63 428.285C153.63 422.887 154.611 418.2 156.574 414.225C158.537 410.25 161.408 407.183 165.187 405.024C168.965 402.865 173.48 401.785 178.731 401.785C183.982 401.785 188.496 402.865 192.275 405.024C196.054 407.183 198.924 410.25 200.887 414.225C202.85 418.2 203.832 422.887 203.832 428.285C203.832 433.683 202.85 438.369 200.887 442.344C198.924 446.319 196.054 449.386 192.275 451.545C188.496 453.705 183.982 454.784 178.731 454.784ZM178.731 445.804C183.344 445.804 186.975 444.307 189.625 441.314C192.275 438.271 193.6 433.928 193.6 428.285C193.6 422.641 192.275 418.323 189.625 415.329C186.975 412.287 183.344 410.766 178.731 410.766C174.118 410.766 170.487 412.287 167.837 415.329C165.187 418.323 163.862 422.641 163.862 428.285C163.862 433.928 165.187 438.271 167.837 441.314C170.487 444.307 174.118 445.804 178.731 445.804Z" fill="black"/>
<path d="M307.607 402.669L291.486 453.901H280.15L269.256 420.998L258.362 453.901H247.026L230.906 402.669H241.432L252.841 442.05L262.762 412.188L275.73 412.188L286.039 442.05L297.449 402.669H307.607Z" fill="black"/>
<path d="M358.292 402.669C363.543 402.669 368.058 403.724 371.836 405.834C375.615 407.895 378.486 410.864 380.448 414.741C382.411 418.568 383.393 423.083 383.393 428.285C383.393 433.486 382.411 438.026 380.448 441.902C378.486 445.73 375.615 448.699 371.836 450.809C368.058 452.87 363.543 453.901 358.292 453.901H339.374V402.669H358.292ZM358.292 445.289C362.954 445.289 366.585 443.841 369.186 440.946C371.836 438.05 373.161 433.83 373.161 428.285C373.161 422.739 371.836 418.519 369.186 415.624C366.585 412.729 362.954 411.281 358.292 411.281H349.091V445.289H358.292Z" fill="black"/>
<path d="M430.081 411.207V424.825H449.146V432.922H430.081V453.901H420.365V402.669H454.005V411.207H430.081Z" fill="black"/>
<path d="M509.183 454.784C502.362 454.784 497.013 452.821 493.136 448.895C489.259 444.97 487.321 439.572 487.321 432.701V402.669H497.037V432.48C497.037 437.191 498.092 440.676 500.203 442.933C502.313 445.141 505.306 446.245 509.183 446.245C513.109 446.245 516.102 445.117 518.163 442.859C520.273 440.553 521.329 437.093 521.329 432.48V402.669H531.045V432.701C531.045 439.572 529.107 444.97 525.23 448.895C521.353 452.821 516.004 454.784 509.183 454.784Z" fill="black"/>
<path d="M612.772 402.669V453.901H603.055L578.764 420.04V453.901H569.048V402.669H578.764L603.055 436.455V402.669H612.772Z" fill="black"/>
<path d="M670.394 402.669C675.644 402.669 680.159 403.724 683.938 405.834C687.716 407.895 690.587 410.864 692.55 414.741C694.513 418.568 695.494 423.083 695.494 428.285C695.494 433.486 694.513 438.026 692.55 441.902C690.587 445.73 687.716 448.699 683.938 450.809C680.159 452.87 675.644 453.901 670.394 453.901H651.476V402.669H670.394ZM670.394 445.289C675.056 445.289 678.687 443.841 681.288 440.946C683.938 438.05 685.263 433.83 685.263 428.285C685.263 422.739 683.938 418.519 681.288 415.624C678.687 412.729 675.056 411.281 670.394 411.281H661.192V445.289H670.394Z" fill="black"/>
<path d="M731.804 402.669H741.52V453.901H731.804V402.669Z" fill="black"/>
<path d="M823.324 402.669V453.901H813.607L789.316 420.04V453.901H779.6V402.669H789.316L813.607 436.455V402.669H823.324Z" fill="black"/>
<path d="M860.261 428.506C860.261 423.058 861.292 418.323 863.353 414.299C865.463 410.275 868.481 407.183 872.407 405.024C876.382 402.865 881.068 401.785 886.466 401.785C889.558 401.785 892.33 402.104 894.784 402.742C897.238 403.38 899.642 404.263 901.998 405.392V414.446H901.703C899.986 413.416 897.851 412.557 895.299 411.87C892.797 411.134 890.098 410.766 887.202 410.766C876.063 410.766 870.493 416.63 870.493 428.358C870.493 434.1 871.818 438.443 874.468 441.387C877.118 444.332 880.995 445.804 886.098 445.804C890.22 445.804 893.287 444.945 895.299 443.227V435.498H885.583V427.401H905.016V448.38C901.09 450.785 897.704 452.453 894.858 453.386C892.011 454.318 888.993 454.784 885.804 454.784C880.406 454.784 875.793 453.705 871.965 451.545C868.137 449.386 865.218 446.344 863.206 442.418C861.243 438.443 860.261 433.805 860.261 428.506Z" fill="black"/>
</svg>
